<svg xmlns="http://www.w3.org/2000/svg" viewBox="0 0 1200 560" role="img" aria-labelledby="title desc">
  <title id="title">Routes and sections</title>
  <desc id="desc">Routes are pages while sections are anchors inside a page.</desc>
  <rect width="1200" height="560" rx="28" fill="#111820"/>
  <text x="90" y="80" fill="#f2eee6" font-family="Arial, Helvetica, sans-serif" font-size="32" font-weight="700">routes are pages, sections are anchors</text>
  <g font-family="Arial, Helvetica, sans-serif">
    <g transform="translate(95 140)">
      <rect width="290" height="285" rx="18" fill="#24313a" stroke="#60727c"/>
      <text x="28" y="48" fill="#f2eee6" font-size="26" font-weight="700">/</text>
      <rect x="28" y="82" width="234" height="42" rx="9" fill="#d8c47a"/>
      <rect x="28" y="142" width="200" height="34" rx="8" fill="#52636c"/>
      <rect x="28" y="194" width="218" height="34" rx="8" fill="#52636c"/>
      <text x="42" y="110" fill="#141b20" font-size="18" font-weight="700">#intro</text>
      <text x="42" y="165" fill="#f2eee6" font-size="18">#workflow</text>
      <text x="42" y="217" fill="#f2eee6" font-size="18">#next</text>
    </g>
    <g transform="translate(455 140)">
      <rect width="290" height="285" rx="18" fill="#24313a" stroke="#60727c"/>
      <text x="28" y="48" fill="#f2eee6" font-size="26" font-weight="700">/concepts/</text>
      <rect x="28" y="82" width="234" height="42" rx="9" fill="#d8c47a"/>
      <rect x="28" y="142" width="200" height="34" rx="8" fill="#52636c"/>
      <rect x="28" y="194" width="218" height="34" rx="8" fill="#52636c"/>
      <text x="42" y="110" fill="#141b20" font-size="18" font-weight="700">#files</text>
      <text x="42" y="165" fill="#f2eee6" font-size="18">#presentation</text>
      <text x="42" y="217" fill="#f2eee6" font-size="18">#routes-sections</text>
    </g>
    <g transform="translate(815 140)">
      <rect width="290" height="285" rx="18" fill="#24313a" stroke="#60727c"/>
      <text x="28" y="48" fill="#f2eee6" font-size="26" font-weight="700">/reference/</text>
      <rect x="28" y="82" width="234" height="42" rx="9" fill="#d8c47a"/>
      <rect x="28" y="142" width="200" height="34" rx="8" fill="#52636c"/>
      <rect x="28" y="194" width="218" height="34" rx="8" fill="#52636c"/>
      <text x="42" y="110" fill="#141b20" font-size="18" font-weight="700">#docs</text>
      <text x="42" y="165" fill="#f2eee6" font-size="18">#commands</text>
      <text x="42" y="217" fill="#f2eee6" font-size="18">#development</text>
    </g>
  </g>
</svg>
